<svg width="49" height="52" viewBox="0 0 49 52" fill="none" xmlns="http://www.w3.org/2000/svg">
<ellipse cx="24.439" cy="25.7826" rx="23.9844" ry="25.7826" fill="#B8F16F"/>
<path d="M32.2559 16.7068L31.9105 19.585C31.066 19.5231 30.4134 19.6882 29.9527 20.0802C29.4921 20.4722 29.185 21.019 29.0314 21.7205C28.8779 22.422 28.8491 23.2164 28.9451 24.1036H32.2559V31.5622H25.8933V23.4846C25.8933 21.0499 26.4307 19.2136 27.5056 17.9757C28.5996 16.7171 30.183 16.2941 32.2559 16.7068ZM23.3885 16.7068L23.0431 19.585C22.1985 19.5231 21.546 19.6882 21.0853 20.0802C20.6247 20.4722 20.3176 21.019 20.164 21.7205C20.0105 22.422 19.9817 23.2164 20.0777 24.1036H23.3885V31.5622H17.0259V23.4846C17.0259 21.0499 17.5633 19.2136 18.6381 17.9757C19.7322 16.7171 21.3156 16.2941 23.3885 16.7068Z" fill="black"/>
</svg>
