<svg width="60" height="61" viewBox="0 0 60 61" fill="none" xmlns="http://www.w3.org/2000/svg">
<path d="M25.288 33.4482C25.288 35.1497 23.9088 36.529 22.2074 36.529C20.506 36.529 19.1268 35.1498 19.1268 33.4482C19.1268 31.7469 20.506 30.3675 22.2074 30.3675C23.9088 30.3676 25.288 31.747 25.288 33.4482ZM37.7926 30.3676C36.0913 30.3676 34.712 31.7469 34.712 33.4484C34.712 35.1498 36.0913 36.529 37.7926 36.529C39.494 36.529 40.8734 35.1498 40.8734 33.4484C40.8733 31.747 39.4941 30.3676 37.7926 30.3676ZM60 31.7311V37.5859C60 40.5253 57.6172 42.9081 54.6776 42.9081H50.8155C46.9885 53.534 37.2161 59.9521 30 59.9521C22.7839 59.9521 13.0115 53.534 9.18451 42.908H5.32235C2.38284 42.908 0 40.5253 0 37.5858V31.731C0 29.7083 1.12853 27.9493 2.7902 27.0488C2.84598 18.7366 5.26863 12.2447 10.0013 7.75677C14.6956 3.3052 21.4241 1.04785 30 1.04785C38.5759 1.04785 45.3044 3.3052 49.9987 7.75667C54.7313 12.2446 57.1538 18.7366 57.2098 27.0487C58.8715 27.9493 60 29.7083 60 31.7311ZM48.7352 33.4677C48.7352 32.0982 48.6651 30.8115 48.5616 29.5646C46.1995 27.4035 41.9114 25.7637 36.4995 25.1544C37.2101 25.9534 37.8239 27.0045 38.1962 28.388C34.8813 25.7766 28.3745 26.3981 23.4528 20.5542C23.1707 20.2278 22.9267 19.916 22.7157 19.631C22.7132 19.6276 22.7105 19.6249 22.708 19.6216L22.7086 19.6218C21.833 18.4377 21.5345 17.7333 21.5178 18.5129C21.3734 25.2299 16.6125 30.4664 11.3259 31.2051C11.2925 31.9438 11.2651 32.6897 11.2651 33.4678C11.2651 36.307 11.7287 38.8945 12.517 41.2264C15.4866 44.8084 20.3907 45.8199 24.7313 46.0881C25.5371 44.8062 27.345 43.9112 29.4505 43.9112C32.3051 43.9112 34.6191 45.5537 34.6191 47.5802C34.6191 49.6065 32.305 51.249 29.4505 51.249C27.2547 51.249 25.3835 50.2755 24.6346 48.9047C21.601 48.7283 18.2661 48.2112 15.2938 46.8075C19.4736 52.9686 25.9534 56.2265 30 56.2265C36.3587 56.2265 48.7352 48.1936 48.7352 33.4677ZM54.0054 26.4087C53.6667 11.9037 45.3874 4.24138 30 4.24138C14.6126 4.24138 6.33343 11.9037 5.99461 26.4087H8.04235C8.79108 21.5198 10.3735 17.4991 12.7762 14.4076C16.6049 9.48128 22.3998 6.98334 30 6.98334C37.6002 6.98334 43.3951 9.48128 47.224 14.4076C49.6265 17.499 51.209 21.5198 51.9577 26.4087H54.0054Z" fill="#71DC3F"/>
</svg>
