<svg width="60" height="60" viewBox="0 0 60 60" fill="none" xmlns="http://www.w3.org/2000/svg">
<path d="M44.967 28.6372C44.967 21.0177 38.3987 14.8407 30.2812 14.8407C22.1636 14.8407 15.5645 21.0177 15.5645 28.6372C15.5645 33.7149 18.5152 38.1511 22.8207 40.5465V45.0119C22.8207 46.1616 23.8723 47.1372 25.0972 47.1372H35.3413C36.5662 47.1372 37.5189 46.1616 37.5189 45.0119V40.6276C41.9729 38.252 44.967 33.7725 44.967 28.6372ZM21.195 26.3366C21.0482 26.3366 20.8987 26.3108 20.7539 26.2564C20.1449 26.0275 19.8489 25.3786 20.0928 24.8071C20.6418 23.52 21.4461 22.3685 22.4833 21.3844C23.5488 20.3734 24.8038 19.5923 26.2133 19.0626C26.8228 18.8333 27.5136 19.1116 27.7574 19.6832C28.0012 20.2549 27.7051 20.9038 27.0963 21.1325C25.9909 21.5478 25.0071 22.1603 24.1721 22.9525C23.3591 23.7239 22.7285 24.6266 22.2981 25.6359C22.1123 26.0716 21.6664 26.3366 21.195 26.3366Z" fill="#71DC3F"/>
<path d="M36.3436 49.3669H24.0951C23.4185 49.3669 22.8208 49.8467 22.8208 50.4818V50.5514C22.8208 51.1865 23.4185 51.736 24.0951 51.736H25.3961C25.436 54.1051 27.6127 56.2652 30.2936 56.2652C32.9744 56.2652 35.1512 54.1051 35.191 51.736H36.3436C37.0201 51.736 37.519 51.1865 37.519 50.5514V50.4818C37.519 49.8467 37.0201 49.3669 36.3436 49.3669Z" fill="#71DC3F"/>
<path d="M12.1345 32.4149L8.28153 33.9142C7.61092 34.1317 7.33048 34.7726 7.59873 35.3792C7.85478 35.9514 8.54977 36.2604 9.15942 36.0201L13.0124 34.5208C13.622 34.2805 13.9512 33.6281 13.6952 33.0558C13.4391 32.4836 12.7563 32.1746 12.1345 32.4149Z" fill="#71DC3F"/>
<path d="M46.6892 20.1802C46.9452 20.7525 47.6402 21.0615 48.2499 20.8211L52.1028 19.3218C52.7125 19.0815 53.0417 18.4291 52.7856 17.8569C52.5296 17.2846 51.8346 16.9756 51.225 17.216L47.372 18.7152C46.7014 18.9213 46.4209 19.5622 46.6892 20.1802Z" fill="#71DC3F"/>
<path d="M36.9227 11.173C37.5324 11.4134 38.2639 11.1616 38.52 10.5893L40.1173 6.97271C40.3733 6.40046 40.1051 5.71377 39.4954 5.47342C38.8858 5.23308 38.1542 5.48487 37.8981 6.05711L36.3009 9.67373C35.9839 10.2803 36.2643 10.9098 36.9227 11.173Z" fill="#71DC3F"/>
<path d="M21.6694 10.6466C21.9011 11.276 22.5839 11.5393 23.2301 11.2875C23.8398 11.0471 24.169 10.3948 23.9129 9.82253L22.3278 6.19447C22.0718 5.62222 21.3768 5.31321 20.7671 5.55355C20.1575 5.7939 19.8283 6.44626 20.0843 7.01851L21.6694 10.6466Z" fill="#71DC3F"/>
<path d="M52.1029 34.1659L48.2499 32.6666C47.6403 32.4263 46.9087 32.6781 46.6527 33.2503C46.3966 33.8226 46.6649 34.5093 47.2745 34.7496L51.1275 36.2489C51.7615 36.5465 52.4443 36.2832 52.7247 35.6652C52.9808 35.0815 52.7247 34.3948 52.1029 34.1659Z" fill="#71DC3F"/>
<path d="M8.19625 19.5393L12.0492 21.0386C12.6832 21.3362 13.366 21.0729 13.6465 20.4549C13.9025 19.8827 13.6343 19.196 13.0246 18.9556L9.15949 17.4678C8.54984 17.2274 7.81827 17.4792 7.56222 18.0515C7.30616 18.6237 7.5866 19.299 8.19625 19.5393Z" fill="#71DC3F"/>
</svg>
