<svg width="50" height="51" viewBox="0 0 50 51" fill="none" xmlns="http://www.w3.org/2000/svg">
<g clip-path="url(#clip0_127_511)">
<path d="M32.5435 1.08579C32.1684 0.710713 31.6597 0.5 31.1293 0.5H7.12232C6.01775 0.5 5.12231 1.39543 5.12231 2.5V48.5C5.12231 49.6046 6.01774 50.5 7.12231 50.5H42.8777C43.9823 50.5 44.8777 49.6046 44.8777 48.5V14.2484C44.8777 13.718 44.667 13.2093 44.2919 12.8342L32.5435 1.08579ZM35.6598 9.71951C36.6043 10.6641 35.9354 12.279 34.5996 12.279V12.279C33.7716 12.279 33.1003 11.6077 33.1003 10.7797V10.7797C33.1003 9.44389 34.7153 8.77495 35.6598 9.71951V9.71951ZM11.0227 46.5996C9.91816 46.5996 9.02274 45.7041 9.02274 44.5996V6.40042C9.02274 5.29585 9.91817 4.40042 11.0227 4.40042H27.1999C28.3044 4.40042 29.1999 5.29585 29.1999 6.40042V14.2292C29.1999 15.3063 30.0728 16.1794 31.1501 16.1794H38.9773C40.0819 16.1794 40.9773 17.0749 40.9773 18.1794V44.5996C40.9773 45.7042 40.0819 46.5996 38.9773 46.5996H11.0227Z" fill="#71DC3F"/>
<path d="M36.1821 39.2452H13.8181V41.8455H36.1821V39.2452Z" fill="#71DC3F"/>
<path d="M27.0946 14.8278H13.8181V17.4281H27.0946V14.8278Z" fill="#71DC3F"/>
<path d="M31.528 23.1055H32.969L27.3995 28.6748L23.0445 24.3199L13.4167 33.9484L15.2551 35.7874L23.0445 27.9974L27.3995 32.3521L34.8077 24.9439V26.3819H37.408V20.5052H31.528V23.1055Z" fill="#71DC3F"/>
<path d="M27.0946 9.15451H13.8181V11.7548H27.0946V9.15451Z" fill="#71DC3F"/>
<path d="M33 12.5L33.0698 6.2762L39 12.5L33 12.5Z" fill="white"/>
</g>
<defs>
<clipPath id="clip0_127_511">
<rect y="0.5" width="50" height="50" rx="2" fill="white"/>
</clipPath>
</defs>
</svg>
