<svg width="55" height="55" viewBox="0 0 55 55" fill="none" xmlns="http://www.w3.org/2000/svg">
<path d="M44.3781 3.47515C46.3992 4.39584 48.2855 5.54109 49.7226 7.21404C50.6096 8.26947 51.07 9.48208 51.07 10.9193C51.07 12.435 51.07 13.9508 51.07 15.4666C51.0251 17.4427 49.7675 18.7002 47.8363 18.7002C46.6125 18.7451 45.3999 18.7002 44.1311 18.7002C42.9522 18.7002 41.7733 18.7002 40.5157 18.7002C38.4161 18.7002 37.1923 17.4764 37.1923 15.3767C37.1923 13.861 37.1474 12.3901 37.2372 10.8743C37.2372 10.4589 37.1137 10.3242 36.7769 10.1558C35.0478 9.43717 33.285 9.10033 31.4773 8.89823C27.817 8.51648 24.2016 8.60631 20.6311 9.40349C19.8789 9.57191 19.1154 9.90874 18.3631 10.0772C17.9813 10.2007 17.8578 10.414 17.8578 10.8294C17.8578 12.3452 17.8578 13.861 17.8578 15.3767C17.8578 17.3978 16.6003 18.6553 14.6242 18.6104C12.1877 18.6104 9.74007 18.6104 7.30361 18.6104C5.28259 18.6104 4.02506 17.3528 3.98015 15.2869C3.93524 13.8946 4.05875 12.5136 3.93524 11.1214C3.85664 9.10033 4.65383 7.55088 6.12468 6.23722C8.19062 4.42952 10.672 3.2955 13.2769 2.36359C19.0817 0.342565 25.0998 -0.364793 31.2752 0.174147C35.8 0.623263 40.1789 1.54395 44.3781 3.47515Z" fill="#71DC3F"/>
<path d="M18.4192 45.9391C20.0563 45.9391 21.3834 44.612 21.3834 42.9749C21.3834 41.3378 20.0563 40.0107 18.4192 40.0107C16.7822 40.0107 15.4551 41.3378 15.4551 42.9749C15.4551 44.612 16.7822 45.9391 18.4192 45.9391Z" fill="#71DC3F"/>
<path d="M18.4192 27.806C20.0563 27.806 21.3834 26.4789 21.3834 24.8419C21.3834 23.2048 20.0563 21.8777 18.4192 21.8777C16.7822 21.8777 15.4551 23.2048 15.4551 24.8419C15.4551 26.4789 16.7822 27.806 18.4192 27.806Z" fill="#71DC3F"/>
<path d="M18.4192 36.8669C20.0563 36.8669 21.3834 35.5398 21.3834 33.9028C21.3834 32.2657 20.0563 30.9386 18.4192 30.9386C16.7822 30.9386 15.4551 32.2657 15.4551 33.9028C15.4551 35.5398 16.7822 36.8669 18.4192 36.8669Z" fill="#71DC3F"/>
<path d="M27.4914 45.9391C29.1285 45.9391 30.4556 44.612 30.4556 42.9749C30.4556 41.3378 29.1285 40.0107 27.4914 40.0107C25.8543 40.0107 24.5272 41.3378 24.5272 42.9749C24.5272 44.612 25.8543 45.9391 27.4914 45.9391Z" fill="#71DC3F"/>
<path d="M27.4914 27.806C29.1285 27.806 30.4556 26.4789 30.4556 24.8419C30.4556 23.2048 29.1285 21.8777 27.4914 21.8777C25.8543 21.8777 24.5272 23.2048 24.5272 24.8419C24.5272 26.4789 25.8543 27.806 27.4914 27.806Z" fill="#71DC3F"/>
<path d="M27.4914 36.8782C29.1285 36.8782 30.4556 35.5511 30.4556 33.914C30.4556 32.2769 29.1285 30.9498 27.4914 30.9498C25.8543 30.9498 24.5272 32.2769 24.5272 33.914C24.5272 35.5511 25.8543 36.8782 27.4914 36.8782Z" fill="#71DC3F"/>
<path d="M27.4914 55C29.1285 55 30.4556 53.6729 30.4556 52.0358C30.4556 50.3988 29.1285 49.0717 27.4914 49.0717C25.8543 49.0717 24.5272 50.3988 24.5272 52.0358C24.5272 53.6729 25.8543 55 27.4914 55Z" fill="#71DC3F"/>
<path d="M36.5635 27.806C38.2006 27.806 39.5277 26.4789 39.5277 24.8419C39.5277 23.2048 38.2006 21.8777 36.5635 21.8777C34.9265 21.8777 33.5994 23.2048 33.5994 24.8419C33.5994 26.4789 34.9265 27.806 36.5635 27.806Z" fill="#71DC3F"/>
<path d="M36.5635 36.8782C38.2006 36.8782 39.5277 35.5511 39.5277 33.914C39.5277 32.2769 38.2006 30.9498 36.5635 30.9498C34.9265 30.9498 33.5994 32.2769 33.5994 33.914C33.5994 35.5511 34.9265 36.8782 36.5635 36.8782Z" fill="#71DC3F"/>
<path d="M36.5635 45.9391C38.2006 45.9391 39.5277 44.612 39.5277 42.9749C39.5277 41.3378 38.2006 40.0107 36.5635 40.0107C34.9265 40.0107 33.5994 41.3378 33.5994 42.9749C33.5994 44.612 34.9265 45.9391 36.5635 45.9391Z" fill="#71DC3F"/>
</svg>
