<svg width="55" height="56" viewBox="0 0 55 56" fill="none" xmlns="http://www.w3.org/2000/svg">
<path d="M55 29.0071C55 43.1243 43.5159 54.6115 29.3957 54.6115C15.3189 54.6115 3.86422 43.1909 3.79909 29.1281H0L5.68933 20.5902L11.3787 29.1281H8.06493C8.13006 40.8371 17.6712 50.3441 29.3941 50.3441C41.1589 50.3441 50.7311 40.7735 50.7311 29.0071C50.7311 17.2408 41.1589 7.6702 29.3941 7.6702C28.2141 7.6702 27.2604 6.71345 27.2604 5.53496C27.2604 4.35646 28.2141 3.40282 29.3941 3.40282C43.5143 3.40437 55 14.89 55 29.0071ZM29.3988 44.892C20.6407 44.892 13.5139 37.7668 13.5139 29.0071C13.5139 28.6133 13.196 28.2954 12.8022 28.2954C12.4098 28.2954 12.092 28.6133 12.092 29.0071C12.092 38.5498 19.8561 46.3155 29.3988 46.3155C38.9384 46.3155 46.704 38.5498 46.704 29.0071C46.704 19.4676 38.9384 11.6988 29.3988 11.6988C29.0065 11.6988 28.6886 12.0198 28.6886 12.4121C28.6886 12.806 29.0065 13.1238 29.3988 13.1238C38.1537 13.1238 45.2805 20.2506 45.2805 29.0056C45.2805 37.7668 38.1537 44.892 29.3988 44.892ZM21.1834 39.3918C21.6006 39.8105 22.1464 40.0152 22.6922 40.0152C23.238 40.0152 23.7839 39.8059 24.201 39.3918L30.906 32.6868C31.3076 32.2868 31.5309 31.7471 31.5309 31.1781V19.1093C31.5309 17.9293 30.5757 16.9741 29.3972 16.9741C28.2172 16.9741 27.2635 17.9293 27.2635 19.1093V30.2926L21.185 36.3712C20.3523 37.2054 20.3523 38.556 21.1834 39.3918ZM4.98069 11.7019C4.98069 6.00481 9.59852 1.39007 15.2925 1.39007C20.9865 1.39007 25.6043 6.00946 25.6043 11.7019C25.6043 17.3943 20.9865 22.0137 15.2925 22.0137C9.59852 22.0137 4.98069 17.3959 4.98069 11.7019ZM8.11765 11.8477L12.7215 16.45C12.9991 16.7291 13.3635 16.8702 13.7264 16.8702C14.0908 16.8702 14.4552 16.7307 14.7327 16.45L22.4457 8.7355C23.0008 8.18037 23.0008 7.28099 22.4457 6.72431C21.8905 6.16762 20.9896 6.16917 20.4345 6.72431L13.7264 13.4293L10.1288 9.83491C9.57371 9.28133 8.67123 9.28133 8.11765 9.83491C7.56097 10.3931 7.56097 11.2925 8.11765 11.8477Z" fill="#71DC3F"/>
</svg>
